<svg xmlns="http://www.w3.org/2000/svg" viewBox="0 0 600.7 170" role="img" aria-label="Foundry by Steddle"><g fill="#0b231c"><g transform="translate(-7.27 -22.73) scale(4.5455)"><path d="M12.4 5H19.6L22.6 14.8H9.4Z M4.6 17.2H11.8L14.8 27H1.6Z M20.2 17.2H27.4L30.4 27H17.2Z"></path></g><path d="M165.52 100V97.95L174.09 93.86V47.39H164.37V41.63H174.09V38.56Q174.09 33.18 177.23 27.17Q180.37 21.15 185.42 15.9Q190.48 10.66 196.37 7.33Q202.25 4 207.76 4Q211.34 4 212.88 5.34Q214.41 6.69 214.41 8.74Q214.41 9.12 214.29 9.82Q214.16 10.53 214.03 11.04L212.49 18.08L196.62 13.73Q194.45 16.54 193.29 21.41Q192.14 26.27 192.14 34.21V41.63H207.25V47.39H192.14V93.98L202 97.95V100ZM238.86 101.28Q229.77 101.28 222.86 97.12Q215.95 92.96 212.11 86.05Q208.27 79.14 208.27 70.82Q208.27 62.37 212.11 55.46Q215.95 48.54 222.86 44.45Q229.77 40.35 238.86 40.35Q247.95 40.35 254.8 44.45Q261.65 48.54 265.49 55.46Q269.33 62.37 269.33 70.82Q269.33 79.14 265.49 86.05Q261.65 92.96 254.8 97.12Q247.95 101.28 238.86 101.28ZM240.27 95.01Q243.98 95.01 246.29 92Q248.59 88.99 249.74 84.06Q250.89 79.14 250.89 73.38Q250.89 66.34 249.55 60.19Q248.21 54.05 245.26 50.27Q242.32 46.5 237.71 46.5Q233.87 46.5 231.44 49.5Q229.01 52.51 227.85 57.44Q226.7 62.37 226.7 68.13Q226.7 75.17 228.11 81.25Q229.52 87.33 232.53 91.17Q235.53 95.01 240.27 95.01ZM297.87 101.28Q290.19 101.28 285.26 97.31Q280.33 93.34 280.33 85.54V47.78L271.89 43.68V41.63H298.38V80.29Q298.38 84.77 300.94 87.14Q303.5 89.5 307.47 89.5Q309.9 89.5 312.65 88.61Q315.41 87.71 317.2 86.18V47.78L309.52 43.68V41.63H335.25V93.98L343.31 97.95V100H317.2V91.81H316.69Q312.21 96.29 307.92 98.78Q303.63 101.28 297.87 101.28ZM345.61 100V97.95L354.19 93.86V54.94L346 49.7V48.16L369.29 40.35H370.83L372.11 49.82H372.62Q377.23 45.34 381.58 42.85Q385.93 40.35 391.82 40.35Q399.63 40.35 404.56 44.32Q409.49 48.29 409.49 56.1V93.86L418.06 97.95V100H385.04V97.95L391.44 93.86V61.34Q391.44 56.86 388.88 54.5Q386.32 52.13 382.22 52.13Q379.79 52.13 376.91 53.02Q374.03 53.92 372.11 55.46V93.86L378.64 97.95V100ZM442.51 101.28Q436.88 101.28 431.95 98.08Q427.02 94.88 424.01 88.99Q421.01 83.1 421.01 75.04Q421.01 64.42 424.91 56.61Q428.81 48.8 435.6 44.58Q442.38 40.35 451.09 40.35Q457.23 40.35 461.71 41.5V18.59L452.88 12.45V11.04L478.09 4H479.63V94.24L488.59 97.95V100H462.99L461.84 93.6H461.07Q451.98 101.28 442.51 101.28ZM439.05 71.07Q439.05 81.18 443.41 85.98Q447.76 90.78 453.13 90.78Q455.44 90.78 457.42 90.14Q459.41 89.5 461.71 88.22V51.1Q459.92 49.18 457.81 48.16Q455.69 47.14 453.01 47.14Q449.29 47.14 446.09 49.18Q442.89 51.23 440.97 56.42Q439.05 61.6 439.05 71.07ZM491.92 100V97.95L500.37 93.86V55.71L492.3 49.7V48.16L515.6 40.35H517.13L518.29 52.26H518.93Q523.41 45.6 527.05 43.04Q530.7 40.48 534.67 40.48Q538.25 40.48 540.11 42.02Q541.97 43.55 541.97 46.24Q541.97 47.01 541.58 48.8L539.41 55.71L527.63 52.64Q522.13 54.3 518.41 58.91V93.86L528.78 97.95V100ZM535.18 41.63H570.51V43.68L562.57 47.39V47.78L576.65 77.34H577.55L588.43 48.29V47.78L580.88 43.68V41.63H605.33V43.68L596.24 47.9L569.36 113.31Q566.41 120.48 563.85 124.26Q561.29 128.03 558.35 129.44Q555.41 130.85 551.31 130.85Q548.37 130.85 547.21 129.82Q546.06 128.8 546.06 125.73V117.66H559.89Q561.68 115.49 563.34 112.35Q565.01 109.22 567.18 103.84L568.59 100.38L543.12 47.14L535.18 43.68Z"></path></g><path fill="#525d58" d="M166.63 164V148.91H173.97Q175.12 148.91 176.02 149.35Q176.92 149.79 177.42 150.58Q177.91 151.37 177.91 152.45Q177.91 153.57 177.53 154.31Q177.14 155.05 176.56 155.47Q175.98 155.9 175.34 156.1V156.23Q175.78 156.3 176.29 156.53Q176.81 156.76 177.26 157.16Q177.71 157.55 177.99 158.15Q178.26 158.74 178.26 159.62Q178.26 160.9 177.69 161.89Q177.12 162.88 176.13 163.44Q175.14 164 173.86 164ZM169.66 161.6H173.14Q173.73 161.6 174.18 161.32Q174.63 161.03 174.89 160.55Q175.14 160.06 175.14 159.45Q175.14 158.83 174.88 158.4Q174.61 157.97 174.16 157.73Q173.71 157.49 173.16 157.49H169.66ZM169.66 155.13H172.96Q173.56 155.13 173.98 154.85Q174.41 154.56 174.63 154.09Q174.85 153.62 174.85 153.07Q174.85 152.16 174.4 151.71Q173.95 151.26 173.12 151.26H169.66ZM187.48 164V158.19L182.31 148.91H185.92L189.18 155.13H189.26L192.56 148.91H195.84L190.67 158.19V164ZM213.51 164.22Q211.9 164.22 210.57 163.75Q209.24 163.27 208.44 162.26Q207.63 161.25 207.63 159.6Q207.63 159.47 207.63 159.35Q207.63 159.23 207.66 159.12H210.63Q210.6 159.23 210.6 159.31Q210.6 159.4 210.6 159.51Q210.6 160.22 210.94 160.72Q211.29 161.23 211.96 161.49Q212.63 161.76 213.55 161.76Q214.59 161.76 215.25 161.55Q215.91 161.34 216.24 160.9Q216.57 160.46 216.57 159.82Q216.57 159.14 216.09 158.73Q215.62 158.32 214.86 158.08Q214.1 157.84 213.19 157.63Q212.28 157.42 211.36 157.14Q210.45 156.85 209.68 156.37Q208.91 155.88 208.45 155.09Q207.99 154.3 207.99 153.07Q207.99 151.59 208.79 150.62Q209.59 149.66 210.92 149.17Q212.25 148.69 213.82 148.69Q215.38 148.69 216.65 149.14Q217.93 149.59 218.7 150.55Q219.47 151.5 219.47 153.02V153.31H216.54V153.04Q216.54 152.45 216.22 152.01Q215.91 151.57 215.31 151.34Q214.72 151.11 213.86 151.11Q213.07 151.11 212.46 151.27Q211.86 151.44 211.53 151.8Q211.2 152.16 211.2 152.74Q211.2 153.4 211.66 153.79Q212.12 154.19 212.89 154.42Q213.66 154.65 214.6 154.86Q215.53 155.07 216.44 155.34Q217.36 155.62 218.13 156.09Q218.9 156.56 219.36 157.34Q219.82 158.13 219.82 159.34Q219.82 161.1 218.99 162.16Q218.15 163.23 216.73 163.72Q215.31 164.22 213.51 164.22ZM228.71 164V151.39H224.38V148.91H236.23V151.39H231.9V164ZM241.51 164V148.91H252.01L251.66 151.37H244.7V155.09H251.15V157.51H244.7V161.54H251.74L252.1 164ZM257.73 164V148.91H263.71Q265.01 148.91 266.15 149.31Q267.3 149.72 268.17 150.55Q269.04 151.37 269.52 152.62Q270 153.86 270 155.55V156.96Q270 158.63 269.52 159.94Q269.04 161.25 268.17 162.15Q267.3 163.05 266.15 163.53Q265.01 164 263.71 164ZM260.94 161.54H263.45Q264.35 161.54 265.06 161.13Q265.78 160.72 266.2 159.86Q266.62 159.01 266.62 157.64V155.02Q266.62 153.68 266.2 152.88Q265.78 152.08 265.06 151.71Q264.35 151.35 263.45 151.35H260.94ZM275.88 164V148.91H281.86Q283.16 148.91 284.3 149.31Q285.45 149.72 286.32 150.55Q287.19 151.37 287.67 152.62Q288.15 153.86 288.15 155.55V156.96Q288.15 158.63 287.67 159.94Q287.19 161.25 286.32 162.15Q285.45 163.05 284.3 163.53Q283.16 164 281.86 164ZM279.09 161.54H281.6Q282.5 161.54 283.21 161.13Q283.93 160.72 284.35 159.86Q284.77 159.01 284.77 157.64V155.02Q284.77 153.68 284.35 152.88Q283.93 152.08 283.21 151.71Q282.5 151.35 281.6 151.35H279.09ZM294.03 164V148.91H297.24V161.49H303.55L303.93 164ZM308.86 164V148.91H319.35L319 151.37H312.05V155.09H318.49V157.51H312.05V161.54H319.09L319.44 164Z"></path></svg>