<svg xmlns="http://www.w3.org/2000/svg" viewBox="0 0 600.7 134" role="img" aria-label="Foundry"><g fill="#0b231c"><g transform="translate(-7.27 -22.73) scale(4.5455)"><path d="M12.4 5H19.6L22.6 14.8H9.4Z M4.6 17.2H11.8L14.8 27H1.6Z M20.2 17.2H27.4L30.4 27H17.2Z"></path></g><path d="M165.52 100V97.95L174.09 93.86V47.39H164.37V41.63H174.09V38.56Q174.09 33.18 177.23 27.17Q180.37 21.15 185.42 15.9Q190.48 10.66 196.37 7.33Q202.25 4 207.76 4Q211.34 4 212.88 5.34Q214.41 6.69 214.41 8.74Q214.41 9.12 214.29 9.82Q214.16 10.53 214.03 11.04L212.49 18.08L196.62 13.73Q194.45 16.54 193.29 21.41Q192.14 26.27 192.14 34.21V41.63H207.25V47.39H192.14V93.98L202 97.95V100ZM238.86 101.28Q229.77 101.28 222.86 97.12Q215.95 92.96 212.11 86.05Q208.27 79.14 208.27 70.82Q208.27 62.37 212.11 55.46Q215.95 48.54 222.86 44.45Q229.77 40.35 238.86 40.35Q247.95 40.35 254.8 44.45Q261.65 48.54 265.49 55.46Q269.33 62.37 269.33 70.82Q269.33 79.14 265.49 86.05Q261.65 92.96 254.8 97.12Q247.95 101.28 238.86 101.28ZM240.27 95.01Q243.98 95.01 246.29 92Q248.59 88.99 249.74 84.06Q250.89 79.14 250.89 73.38Q250.89 66.34 249.55 60.19Q248.21 54.05 245.26 50.27Q242.32 46.5 237.71 46.5Q233.87 46.5 231.44 49.5Q229.01 52.51 227.85 57.44Q226.7 62.37 226.7 68.13Q226.7 75.17 228.11 81.25Q229.52 87.33 232.53 91.17Q235.53 95.01 240.27 95.01ZM297.87 101.28Q290.19 101.28 285.26 97.31Q280.33 93.34 280.33 85.54V47.78L271.89 43.68V41.63H298.38V80.29Q298.38 84.77 300.94 87.14Q303.5 89.5 307.47 89.5Q309.9 89.5 312.65 88.61Q315.41 87.71 317.2 86.18V47.78L309.52 43.68V41.63H335.25V93.98L343.31 97.95V100H317.2V91.81H316.69Q312.21 96.29 307.92 98.78Q303.63 101.28 297.87 101.28ZM345.61 100V97.95L354.19 93.86V54.94L346 49.7V48.16L369.29 40.35H370.83L372.11 49.82H372.62Q377.23 45.34 381.58 42.85Q385.93 40.35 391.82 40.35Q399.63 40.35 404.56 44.32Q409.49 48.29 409.49 56.1V93.86L418.06 97.95V100H385.04V97.95L391.44 93.86V61.34Q391.44 56.86 388.88 54.5Q386.32 52.13 382.22 52.13Q379.79 52.13 376.91 53.02Q374.03 53.92 372.11 55.46V93.86L378.64 97.95V100ZM442.51 101.28Q436.88 101.28 431.95 98.08Q427.02 94.88 424.01 88.99Q421.01 83.1 421.01 75.04Q421.01 64.42 424.91 56.61Q428.81 48.8 435.6 44.58Q442.38 40.35 451.09 40.35Q457.23 40.35 461.71 41.5V18.59L452.88 12.45V11.04L478.09 4H479.63V94.24L488.59 97.95V100H462.99L461.84 93.6H461.07Q451.98 101.28 442.51 101.28ZM439.05 71.07Q439.05 81.18 443.41 85.98Q447.76 90.78 453.13 90.78Q455.44 90.78 457.42 90.14Q459.41 89.5 461.71 88.22V51.1Q459.92 49.18 457.81 48.16Q455.69 47.14 453.01 47.14Q449.29 47.14 446.09 49.18Q442.89 51.23 440.97 56.42Q439.05 61.6 439.05 71.07ZM491.92 100V97.95L500.37 93.86V55.71L492.3 49.7V48.16L515.6 40.35H517.13L518.29 52.26H518.93Q523.41 45.6 527.05 43.04Q530.7 40.48 534.67 40.48Q538.25 40.48 540.11 42.02Q541.97 43.55 541.97 46.24Q541.97 47.01 541.58 48.8L539.41 55.71L527.63 52.64Q522.13 54.3 518.41 58.91V93.86L528.78 97.95V100ZM535.18 41.63H570.51V43.68L562.57 47.39V47.78L576.65 77.34H577.55L588.43 48.29V47.78L580.88 43.68V41.63H605.33V43.68L596.24 47.9L569.36 113.31Q566.41 120.48 563.85 124.26Q561.29 128.03 558.35 129.44Q555.41 130.85 551.31 130.85Q548.37 130.85 547.21 129.82Q546.06 128.8 546.06 125.73V117.66H559.89Q561.68 115.49 563.34 112.35Q565.01 109.22 567.18 103.84L568.59 100.38L543.12 47.14L535.18 43.68Z"></path></g></svg>